# xmcd
#
# Track frame offsets: 
#        150
#        40994
#        56846
#        79527
#        102502
#        122052
#        143777
#        158730
#        173574
#        191793
#        206410
#        225098
#        240891
#        256137
#        276787
#        297970
#        310714
#        331922
#
# Disc length: 4668 seconds
#
# Revision: 0
# Processed by: cddbd v1.4PL0 Copyright (c) Steve Scherf et al.
# Submitted via: ExactAudioCopy v0.90a11
#
DISCID=ed123a12
DTITLE=Robin Trower - Go My Way
DYEAR=1900
DGENRE=
TTITLE0=Go My Way
TTITLE1=Breathless
TTITLE2=Into Dust
TTITLE3=Run WIth The Wolves
TTITLE4=Too Much Joy
TTITLE5=Blue Of Soul
TTITLE6=This Old World
TTITLE7=On Your Own
TTITLE8=The This River
TTITLE9=Long Hard Game
TTITLE10=In My Dream
TTITLE11=Next In Line
TTITLE12=Feel So Bad
TTITLE13=Someday Blues
TTITLE14=I Want You To Love Me
TTITLE15=Inside Out
TTITLE16=Shining Through
TTITLE17=Looking For A True Love
EXTD=
EXTT0=
EXTT1=
EXTT2=
EXTT3=
EXTT4=
EXTT5=
EXTT6=
EXTT7=
EXTT8=
EXTT9=
EXTT10=
EXTT11=
EXTT12=
EXTT13=
EXTT14=
EXTT15=
EXTT16=
EXTT17=
PLAYORDER=
